<svg width="1008" height="1045" viewBox="0 0 1008 1045" fill="none" xmlns="http://www.w3.org/2000/svg">
<path d="M234 937C330.984 937 413.21 909.688 468 864.594V901C468 983.094 367.41 1045 234 1045C100.59 1045 0 983.094 0 901V864.594C54.793 909.688 137.02 937 234 937Z" fill="black"/>
<path d="M468 541C468 623.094 367.41 685 234 685C100.59 685 0 623.094 0 541C0 458.906 100.59 397 234 397C367.41 397 468 458.906 468 541Z" fill="black"/>
<path d="M234 757C330.984 757 413.21 729.688 468 684.594V721C468 803.094 367.41 865 234 865C100.59 865 0 803.094 0 721V684.594C54.793 729.688 137.02 757 234 757Z" fill="black"/>
<path d="M774 937C870.984 937 953.21 909.688 1008 864.594V901C1008 983.094 907.41 1045 774 1045C640.59 1045 540 983.094 540 901V864.594C594.793 909.688 677.02 937 774 937Z" fill="black"/>
<path d="M1008 541C1008 623.094 907.41 685 774 685C640.59 685 540 623.094 540 541C540 458.906 640.59 397 774 397C907.41 397 1008 458.906 1008 541Z" fill="black"/>
<path d="M774 757C870.984 757 953.21 729.688 1008 684.594V721C1008 803.094 907.41 865 774 865C640.59 865 540 803.094 540 721V684.594C594.793 729.688 677.02 757 774 757Z" fill="black"/>
<path d="M334.547 155.535L478.547 11.5353C492.598 -2.51574 515.399 -2.51574 529.449 11.5353L673.449 155.535C683.746 165.832 686.84 181.301 681.25 194.773C675.707 208.214 662.555 216.988 648 216.988L576 216.988L576 324.988C576 364.758 543.77 396.988 504 396.988C464.23 396.988 432 364.758 432 324.988L432 216.988L360 216.988C345.445 216.988 332.293 208.215 326.746 194.765C321.156 181.3 324.253 165.831 334.546 155.535L334.547 155.535Z" fill="black"/>
</svg>
