<?xml version="1.0" encoding="UTF-8"?>
<svg width="700pt" height="700pt" version="1.1" viewBox="0 0 700 700" xmlns="http://www.w3.org/2000/svg">
 <path d="m490 93.332c-51.473 0-93.332 41.883-93.332 93.332v70h-93.332v-23.332h-70c-25.738 0-46.668 20.906-46.668 46.668v163.33c0 25.762 20.93 46.668 46.668 46.668h233.33c25.738 0 46.668-20.906 46.668-46.668v-163.33c0-25.762-20.93-46.668-46.668-46.668h-23.332v-46.668c0-25.762 20.93-46.668 46.668-46.668 25.738 0 46.668 20.906 46.668 46.668v70c0 12.902 10.453 23.332 23.332 23.332s23.332-10.43 23.332-23.332v-70c0-51.449-41.859-93.332-93.332-93.332zm-140 333.64c-16.777 0-30.332-13.535-30.332-30.309 0-16.777 13.559-30.355 30.332-30.355 16.777 0 30.332 13.578 30.332 30.355 0 16.777-13.559 30.309-30.332 30.309z"/>
</svg>
