<svg width="60" height="60" viewBox="0 0 60 60" fill="none" xmlns="http://www.w3.org/2000/svg">
<circle cx="30" cy="30" r="30" fill="#3EF3D4"/>
<path d="M44.9888 27.8147C44.9858 27.7975 44.9817 27.7809 44.9775 27.7642C44.9726 27.7451 44.9713 27.7255 44.9646 27.7067L41.4394 17.7708C41.3464 17.5086 41.0955 17.333 40.814 17.333H34.4399L28.2105 11.1913C27.9517 10.9363 27.5325 10.9361 27.2737 11.1915L22.3107 16.0883C22.1864 16.2109 22.1165 16.3772 22.1165 16.5506C22.1165 16.7241 22.1864 16.8903 22.3107 17.0129L22.6354 17.333H19.1819C18.9002 17.333 18.6493 17.5088 18.5563 17.7713L15.0371 27.7071C15.0328 27.7191 15.0324 27.7317 15.0289 27.7439C15.0206 27.7722 15.014 27.8009 15.0096 27.8307C15.0068 27.8499 15.0048 27.8689 15.0037 27.8882C15.003 27.9006 15 27.9123 15 27.9248V44.3462C15 44.7073 15.2966 45 15.6627 45H44.3373C44.7034 45 45 44.7073 45 44.3462V27.9248C45 27.9176 44.9981 27.9108 44.9978 27.9036C44.997 27.8738 44.9938 27.8444 44.9888 27.8147ZM27.7424 12.5782L34.6794 19.4174L31.7569 22.3009H29.5503L23.7165 16.5506L27.7424 12.5782ZM19.6524 18.6407H23.9609L27.6749 22.3009H25.7149C25.3488 22.3009 25.0522 22.5936 25.0522 22.9548C25.0522 23.316 25.3488 23.6086 25.7149 23.6086H29.2762H32.0313H34.2871C34.6531 23.6086 34.9497 23.316 34.9497 22.9548C34.9497 22.5936 34.6531 22.3009 34.2871 22.3009H33.6311L36.0851 19.8797C36.3439 19.6245 36.3439 19.2105 36.0851 18.9551L35.7667 18.6407H40.344L43.4052 27.2689H16.5963L19.6524 18.6407ZM43.6746 43.6923H16.3254V28.5787H43.6746V43.6923V43.6923Z" fill="black" stroke="black"/>
</svg>
