<?xml version="1.0" encoding="UTF-8"?>
<svg width="1200pt" height="1200pt" version="1.1" viewBox="0 0 1200 1200" xmlns="http://www.w3.org/2000/svg">
 <g>
  <path d="m330 1008c96.984 0 179.21-27.312 234-72.406v36.406c0 82.094-100.59 144-234 144s-234-61.906-234-144v-36.406c54.793 45.094 137.02 72.406 234 72.406z"/>
  <path d="m564 612c0 82.094-100.59 144-234 144s-234-61.906-234-144 100.59-144 234-144 234 61.906 234 144z"/>
  <path d="m330 828c96.984 0 179.21-27.312 234-72.406v36.406c0 82.094-100.59 144-234 144s-234-61.906-234-144v-36.406c54.793 45.094 137.02 72.406 234 72.406z"/>
  <path d="m870 1008c96.984 0 179.21-27.312 234-72.406v36.406c0 82.094-100.59 144-234 144s-234-61.906-234-144v-36.406c54.793 45.094 137.02 72.406 234 72.406z"/>
  <path d="m1104 612c0 82.094-100.59 144-234 144s-234-61.906-234-144 100.59-144 234-144 234 61.906 234 144z"/>
  <path d="m870 828c96.984 0 179.21-27.312 234-72.406v36.406c0 82.094-100.59 144-234 144s-234-61.906-234-144v-36.406c54.793 45.094 137.02 72.406 234 72.406z"/>
  <path d="m769.45 313.45-144 144c-14.051 14.051-36.852 14.051-50.902 0l-144-144c-10.297-10.297-13.391-25.766-7.8008-39.238 5.543-13.441 18.695-22.215 33.25-22.215h72v-108c0-39.77 32.23-72 72-72s72 32.23 72 72v108h72c14.555 0 27.707 8.7734 33.254 22.223 5.5898 13.465 2.4922 28.934-7.8008 39.23z"/>
 </g>
</svg>
