<svg width="398" height="397" viewBox="0 0 398 397" fill="none" xmlns="http://www.w3.org/2000/svg">
<path d="M304 0.332031C252.527 0.332031 210.668 42.215 210.668 93.664V163.664H117.336V140.332H47.336C21.598 140.332 0.667969 161.238 0.667969 187V350.33C0.667969 376.092 21.598 396.998 47.336 396.998H280.666C306.404 396.998 327.334 376.092 327.334 350.33V187C327.334 161.238 306.404 140.332 280.666 140.332H257.334V93.664C257.334 67.902 278.264 46.996 304.002 46.996C329.74 46.996 350.67 67.902 350.67 93.664V163.664C350.67 176.566 361.123 186.996 374.002 186.996C386.881 186.996 397.334 176.566 397.334 163.664V93.664C397.334 42.215 355.475 0.332031 304.002 0.332031H304ZM164 333.972C147.223 333.972 133.668 320.437 133.668 303.663C133.668 286.886 147.227 273.308 164 273.308C180.777 273.308 194.332 286.886 194.332 303.663C194.332 320.44 180.773 333.972 164 333.972Z" fill="black"/>
</svg>
