<svg width="60" height="61" viewBox="0 0 60 61" fill="none" xmlns="http://www.w3.org/2000/svg">
<circle cx="30" cy="30" r="30" fill="#3EF3D4"/>
<path d="M12.7216 22.3496C11.8707 22.3496 11.1406 23.0751 11.1406 23.9297V42.3117C11.1406 43.1656 11.8707 43.8917 12.7216 43.8917H31.775C32.6259 43.8917 33.356 43.1659 33.356 42.3117V38.8575L33.3557 38.8572C33.3607 38.5025 33.2235 38.1604 32.9742 37.9077C32.7252 37.655 32.3853 37.5129 32.0302 37.5129C31.6755 37.5129 31.3355 37.655 31.0865 37.9077C30.8372 38.1604 30.6998 38.5025 30.705 38.8572V41.2407L13.7912 41.2404V25.0005H26.0541H26.0538C26.4088 25.0057 26.7506 24.8683 27.0033 24.6189C27.256 24.3699 27.3981 24.03 27.3981 23.6753C27.3981 23.3202 27.256 22.9803 27.0033 22.7313C26.7506 22.4819 26.4088 22.3448 26.0538 22.3497L12.7216 22.3496Z" fill="black"/>
<path d="M17.6712 27.0947C16.8407 27.0947 16.1719 27.7666 16.1719 28.59C16.1719 29.4135 16.8406 30.0854 17.6712 30.0854C18.5018 30.0854 19.1811 29.4135 19.1811 28.59C19.1811 27.7666 18.5018 27.0947 17.6712 27.0947Z" fill="black"/>
<path d="M22.2454 31.6338C21.4149 31.6338 20.7461 32.2952 20.7461 33.1183C20.7461 33.9418 21.4149 34.6136 22.2454 34.6136C23.076 34.6136 23.7448 33.9418 23.7448 33.1183C23.7448 32.2948 23.076 31.6338 22.2454 31.6338Z" fill="black"/>
<path d="M17.6712 36.1611C16.8407 36.1611 16.1719 36.833 16.1719 37.6564C16.1719 38.4799 16.8406 39.141 17.6712 39.141C18.5018 39.141 19.1811 38.4796 19.1811 37.6564C19.1811 36.8329 18.5018 36.1611 17.6712 36.1611Z" fill="black"/>
<path d="M26.8196 36.1611C25.9891 36.1611 25.3203 36.833 25.3203 37.6564C25.3203 38.4799 25.9891 39.141 26.8196 39.141C27.6502 39.141 28.319 38.4796 28.319 37.6564C28.319 36.8329 27.6502 36.1611 26.8196 36.1611Z" fill="black"/>
<path d="M39.315 39.5669C40.0531 39.9919 41.0482 39.7266 41.4757 38.9878L50.6915 23.0674C51.119 22.3287 50.8521 21.3366 50.114 20.9116L33.6129 11.4102C32.8748 10.9852 31.879 11.2502 31.4513 11.9886L22.2354 27.9091C21.808 28.6478 22.0758 29.6405 22.8139 30.0655L39.315 39.5669ZM39.715 36.7383L25.0695 28.3051L33.2124 14.2387L47.8578 22.672L39.715 36.7383Z" fill="black"/>
<path d="M42.5861 22.35C42.1053 22.3827 41.6533 22.6468 41.3953 23.0924C40.9826 23.8056 41.2288 24.7249 41.9482 25.1391C42.6675 25.5533 43.5874 25.3113 44.0004 24.5982C44.4131 23.885 44.156 22.9658 43.4367 22.5516C43.1671 22.3962 42.8746 22.3306 42.5861 22.35H42.5861Z" fill="black"/>
<path d="M36.3557 24.0038C35.8749 24.0365 35.4228 24.2898 35.1648 24.7355C34.7521 25.4486 34.9984 26.3679 35.7177 26.7821C36.437 27.1963 37.3569 26.9544 37.7699 26.2413C38.1826 25.5281 37.9256 24.6088 37.2063 24.1946C36.9366 24.0393 36.6441 23.9841 36.3557 24.0038L36.3557 24.0038Z" fill="black"/>
<path d="M30.1252 25.6474C29.6444 25.6801 29.1923 25.9334 28.9343 26.379C28.5217 27.0922 28.7679 28.0115 29.4872 28.4257C30.2065 28.8399 31.1265 28.598 31.5395 27.8848C31.9521 27.1717 31.6951 26.2524 30.9758 25.8382C30.7061 25.6828 30.4137 25.6277 30.1252 25.6474L30.1252 25.6474Z" fill="black"/>
</svg>
