<?xml version="1.0" encoding="UTF-8"?>
<svg width="700pt" height="700pt" version="1.1" viewBox="0 0 700 700" xmlns="http://www.w3.org/2000/svg">
 <path d="m466.67 233.33h-23.332v-46.668c0-51.449-41.859-93.332-93.332-93.332s-93.332 41.883-93.332 93.332v46.668h-23.332c-25.738 0-46.668 20.906-46.668 46.668v163.33c0 25.762 20.93 46.668 46.668 46.668h233.33c25.738 0 46.668-20.906 46.668-46.668v-163.33c0-25.762-20.93-46.668-46.668-46.668zm-116.67 193.64c-16.777 0-30.332-13.535-30.332-30.309 0-16.777 13.559-30.355 30.332-30.355 16.777 0 30.332 13.578 30.332 30.355 0 16.777-13.559 30.309-30.332 30.309zm46.668-170.31h-93.332v-70c0-25.762 20.93-46.668 46.668-46.668 25.738 0 46.668 20.906 46.668 46.668v70z"/>
</svg>
