<svg width="60" height="60" viewBox="0 0 60 60" fill="none" xmlns="http://www.w3.org/2000/svg">
<circle cx="30" cy="30" r="30" fill="#3EF3D4"/>
<path d="M46.5491 37.1949C45.8141 36.7049 44.9566 36.4599 44.0991 36.7049L42.7516 36.9499V25.9249H43.9766C44.7116 25.9249 45.2016 25.4349 45.2016 24.6999V19.7999C45.2016 19.0649 44.7116 18.5749 43.9766 18.5749H33.4416L34.5441 17.4724C35.6466 16.2474 35.6466 14.4099 34.4216 13.3074C33.3191 12.3274 31.6041 12.2049 30.5016 13.1849C29.2766 12.2049 27.4391 12.3274 26.3366 13.5524C25.3566 14.6549 25.4791 16.3699 26.4591 17.4724L27.5616 18.5749H17.0266C16.2916 18.5749 15.8016 19.0649 15.8016 19.7999V24.6999C15.8016 25.4349 16.2916 25.9249 17.0266 25.9249H18.2516V31.0699C17.8841 30.9474 17.3941 30.8249 17.0266 30.8249C14.9441 30.8249 13.3516 32.4174 13.3516 34.4999V41.8499C13.3516 43.9324 14.9441 45.5249 17.0266 45.5249C18.0066 45.5249 18.9866 45.1574 19.7216 44.4224L26.3366 46.1374C27.1941 46.5049 28.1741 46.7499 29.0316 46.7499H31.2366C32.5841 46.7499 33.8091 46.5049 35.0341 45.8924L46.0591 41.8499C47.0391 41.3599 47.6516 40.3799 47.6516 39.2774C47.6516 38.5424 47.2841 37.6849 46.5491 37.1949ZM40.3016 37.4399L38.3416 37.8074C38.2191 36.3374 36.9941 35.2349 35.5241 35.2349H31.7266V25.9249H40.3016V37.4399ZM42.7516 23.4749H31.7266V21.0249H42.7516V23.4749ZM32.9516 15.3899C32.9516 15.5124 32.9516 15.6349 32.8291 15.7574L31.7266 16.8599V15.3899L32.0941 15.0224C32.3391 14.7774 32.7066 14.8999 32.8291 15.0224C32.9516 15.1449 32.9516 15.2674 32.9516 15.3899ZM28.9091 15.0224L29.2766 15.3899V16.8599L28.1741 15.7574C28.0516 15.6349 28.0516 15.5124 28.0516 15.3899C28.0516 15.1449 28.2966 14.8999 28.6641 14.8999C28.7866 14.8999 28.7866 15.0224 28.9091 15.0224ZM18.2516 21.0249H29.2766V23.4749H18.2516V21.0249ZM29.2766 25.9249V33.6424C27.8066 32.6624 25.9691 32.0499 24.1316 32.0499H20.7016V25.9249H29.2766ZM17.0266 43.0749C16.2916 43.0749 15.8016 42.5849 15.8016 41.8499V34.4999C15.8016 33.7649 16.2916 33.2749 17.0266 33.2749C17.7616 33.2749 18.2516 33.7649 18.2516 34.4999V41.8499C18.2516 42.5849 17.7616 43.0749 17.0266 43.0749ZM45.0791 39.6449L34.0541 43.6874C33.1966 44.0549 32.2166 44.2999 31.1141 44.2999H28.9091C28.2966 44.2999 27.6841 44.1774 27.1941 43.9324L26.9491 43.8099L20.7016 42.0949V34.4999H24.1316C25.4791 34.4999 26.9491 34.8674 28.0516 35.7249L29.2766 36.7049C30.0116 37.3174 30.9916 37.5624 31.9716 37.5624H35.5241C35.6466 37.5624 35.8916 37.6849 35.8916 37.8074C35.8916 37.9299 35.7691 38.0524 35.6466 38.0524H30.8691C30.1341 38.0524 29.6441 38.5424 29.6441 39.2774C29.6441 40.0124 30.1341 40.5024 30.8691 40.5024H35.5241H36.1366L44.5891 39.1549H44.7116H45.0791C45.2016 39.1549 45.2016 39.2774 45.2016 39.3999C45.2016 39.5224 45.2016 39.6449 45.0791 39.6449Z" fill="black"/>
</svg>
