<svg width="328" height="397" viewBox="0 0 328 397" fill="none" xmlns="http://www.w3.org/2000/svg">
<path d="M280.67 140.33H257.338V93.6621C257.338 42.2131 215.479 0.330078 164.006 0.330078C112.533 0.330078 70.6738 42.2131 70.6738 93.6621V140.33H47.3418C21.6038 140.33 0.673828 161.236 0.673828 186.998V350.328C0.673828 376.09 21.6038 396.996 47.3418 396.996H280.672C306.41 396.996 327.34 376.09 327.34 350.328V186.998C327.34 161.236 306.41 140.33 280.672 140.33H280.67ZM164 333.97C147.223 333.97 133.668 320.435 133.668 303.661C133.668 286.884 147.227 273.306 164 273.306C180.777 273.306 194.332 286.884 194.332 303.661C194.332 320.438 180.773 333.97 164 333.97ZM210.668 163.66H117.336V93.6601C117.336 67.8981 138.266 46.9921 164.004 46.9921C189.742 46.9921 210.672 67.8981 210.672 93.6601V163.66H210.668Z" fill="black"/>
</svg>
